<?xml version="1.0" encoding="UTF-8" standalone="no"?>
<svg
   xmlns:dc="http://purl.org/dc/elements/1.1/"
   xmlns:cc="http://creativecommons.org/ns#"
   xmlns:rdf="http://www.w3.org/1999/02/22-rdf-syntax-ns#"
   xmlns:svg="http://www.w3.org/2000/svg"
   xmlns="http://www.w3.org/2000/svg"
   xmlns:sodipodi="http://sodipodi.sourceforge.net/DTD/sodipodi-0.dtd"
   xmlns:inkscape="http://www.inkscape.org/namespaces/inkscape"
   width="128"
   height="128"
   viewBox="0 0 128 128"
   version="1.1"
   preserveAspectRatio="xMidYMid"
   id="svg28"
   sodipodi:docname="jira_logo.svg"
   inkscape:version="1.0.2 (e86c870879, 2021-01-15, custom)"
   inkscape:export-filename="D:\dev\AgfaJenkinsChromeExtension\Extension\jira16.png"
   inkscape:export-xdpi="12"
   inkscape:export-ydpi="12">
  <metadata
     id="metadata34">
    <rdf:RDF>
      <cc:Work
         rdf:about="">
        <dc:format>image/svg+xml</dc:format>
        <dc:type
           rdf:resource="http://purl.org/dc/dcmitype/StillImage" />
        <dc:title></dc:title>
      </cc:Work>
    </rdf:RDF>
  </metadata>
  <defs
     id="defs32" />
  <sodipodi:namedview
     pagecolor="#ffffff"
     bordercolor="#666666"
     borderopacity="1"
     objecttolerance="10"
     gridtolerance="10"
     guidetolerance="10"
     inkscape:pageopacity="0"
     inkscape:pageshadow="2"
     inkscape:window-width="2400"
     inkscape:window-height="1321"
     id="namedview30"
     showgrid="false"
     inkscape:zoom="2.3730469"
     inkscape:cx="173.19506"
     inkscape:cy="100"
     inkscape:window-x="-9"
     inkscape:window-y="-9"
     inkscape:window-maximized="1"
     inkscape:current-layer="svg28"
     inkscape:document-rotation="0" />
  <path
     d="m 36.429706,8.614961 c -4.63724,0 -8.392078,3.75021 -8.392078,8.399019 0,4.63724 3.754838,8.400562 8.392078,8.400562 4.641096,0 8.392077,-3.763322 8.392077,-8.400562 0,-4.648809 -3.750981,-8.399019 -8.392077,-8.399019"
     id="path12"
     style="fill:#e6e6e6;stroke-width:0.676421" />
  <path
     d="m 91.564417,8.614961 c -4.63955,0 -8.389762,3.75021 -8.389762,8.399019 0,4.63724 3.750212,8.400562 8.389762,8.400562 4.626441,0 8.390533,-3.763322 8.390533,-8.400562 0,-4.648809 -3.764092,-8.392848 -8.390533,-8.399019"
     id="path14"
     style="fill:#e6e6e6;stroke-width:0.676421" />
  <path
     d="m 63.997062,0.95102005 c -4.63724,0 -8.392077,3.74943815 -8.392077,8.39979075 0,4.6372392 3.754837,8.4013332 8.392077,8.4013332 4.640325,0 8.390534,-3.764094 8.390534,-8.4013332 0,-4.6503526 -3.750209,-8.39979075 -8.390534,-8.39979075"
     id="path16"
     style="fill:#e6e6e6;stroke-width:0.676421" />
  <path
     d="m 111.40381,32.019446 c -0.46743,-0.354812 -1.02818,-0.53916 -1.59742,-0.53916 -0.31625,0 -0.63558,0.05785 -0.93794,0.174321 -5.68239,2.172838 -11.452716,3.822714 -16.719362,5.049901 -1.074467,0.250683 -1.942214,1.048239 -2.30165,2.006231 -3.837369,10.510923 -13.635584,20.519709 -23.915879,31.002866 -0.412661,0.39183 -0.990388,0.908622 -1.931411,0.908622 -0.93871,0 -1.511037,-0.500592 -1.931412,-0.908622 C 51.789984,59.230448 41.991771,49.256372 38.152858,38.744678 37.792647,37.787457 36.9249,36.9899 35.85275,36.738447 30.583019,35.51126 24.79804,33.810476 19.122589,31.637638 c -0.303904,-0.1157 -0.623235,-0.17355 -0.940252,-0.17355 -0.569242,0 -1.119972,0.178949 -1.585856,0.534532 -0.728136,0.555358 -1.106088,1.456272 -1.019699,2.321705 0.870061,8.740719 4.32408,17.28552 10.557203,26.239897 5.859027,8.418303 13.50137,16.211056 20.889947,23.746187 13.613986,13.886263 26.474381,27.001201 27.602837,42.209521 0.101816,1.37143 1.244928,2.43509 2.623296,2.43509 h 15.994311 c 0.720422,0 1.40845,-0.29619 1.905957,-0.81838 0.495194,-0.52142 0.75745,-1.22179 0.721193,-1.94221 -0.502905,-10.16768 -4.329478,-20.35002 -11.697994,-31.125507 -1.544208,-2.259225 -3.19794,-4.457519 -4.927263,-6.60876 -0.702683,-0.876229 -0.408805,-1.964576 0.128812,-2.513762 0.531447,-0.543789 1.065207,-1.086035 1.602054,-1.635992 7.389347,-7.535902 15.030149,-15.327884 20.890715,-23.746187 6.23236,-8.955148 9.68483,-17.449813 10.55566,-26.188989 0.0872,-0.878545 -0.31161,-1.810313 -1.0197,-2.351787"
     id="path18"
     style="fill:#e6e6e6;stroke-width:0.676421" />
  <path
     d="m 46.836499,96.136306 c -0.377952,-0.395693 -0.934082,-0.799875 -1.867392,-0.799875 -1.19402,0 -1.902101,0.825328 -2.169753,1.23413 -6.727546,10.237869 -10.20239,19.900329 -10.682929,29.610609 -0.03471,0.7158 0.229085,1.42697 0.724279,1.94993 0.497509,0.51987 1.194792,0.81992 1.913671,0.81992 h 15.967316 c 1.373739,0 2.530736,-1.07523 2.63178,-2.44512 0.34787,-4.67966 1.804914,-9.37089 4.45752,-14.30047 0.919425,-1.70541 0.205174,-3.30746 -0.323959,-3.9924 -2.63178,-3.42239 -5.855171,-7.0731 -10.650533,-12.076724"
     id="path20"
     style="fill:#e6e6e6;stroke-width:0.676421" />
  <path
     d="m 64.014803,39.855394 c 5.012877,0 7.920022,-0.300819 8.941264,-0.300819 1.237214,0 2.419664,1.013529 2.419664,2.432777 0,0.414204 -0.09796,0.710395 -0.195146,0.971876 -0.664887,1.777146 -3.694674,8.171477 -9.335414,13.656409 -0.632492,0.615522 -1.349829,0.73045 -1.843481,0.73045 h -0.0062 c -0.49288,0 -1.209446,-0.114928 -1.841937,-0.73045 -5.640756,-5.484932 -8.671314,-11.879263 -9.334658,-13.656409 -0.09796,-0.261481 -0.195918,-0.557672 -0.195918,-0.971876 0,-1.419248 1.183992,-2.432777 2.421206,-2.432777 1.021242,0 3.926845,0.300819 8.937408,0.300819 h 0.03316"
     id="path22"
     style="fill:#e6e6e6;stroke-width:0.676421" />
</svg>
