<?xml version="1.0" encoding="UTF-8" standalone="no"?>
<svg
   xmlns:dc="http://purl.org/dc/elements/1.1/"
   xmlns:cc="http://creativecommons.org/ns#"
   xmlns:rdf="http://www.w3.org/1999/02/22-rdf-syntax-ns#"
   xmlns:svg="http://www.w3.org/2000/svg"
   xmlns="http://www.w3.org/2000/svg"
   xmlns:sodipodi="http://sodipodi.sourceforge.net/DTD/sodipodi-0.dtd"
   xmlns:inkscape="http://www.inkscape.org/namespaces/inkscape"
   height="128"
   width="128"
   version="1.1"
   id="svg4"
   sodipodi:docname="Markdown_logo.svg"
   inkscape:version="1.0.2 (e86c870879, 2021-01-15, custom)"
   inkscape:export-filename="D:\dev\AgfaJenkinsChromeExtension\Extension\md16.png"
   inkscape:export-xdpi="12"
   inkscape:export-ydpi="12">
  <metadata
     id="metadata10">
    <rdf:RDF>
      <cc:Work
         rdf:about="">
        <dc:format>image/svg+xml</dc:format>
        <dc:type
           rdf:resource="http://purl.org/dc/dcmitype/StillImage" />
        <dc:title></dc:title>
      </cc:Work>
    </rdf:RDF>
  </metadata>
  <defs
     id="defs8" />
  <sodipodi:namedview
     pagecolor="#ffffff"
     bordercolor="#666666"
     borderopacity="1"
     objecttolerance="10"
     gridtolerance="10"
     guidetolerance="10"
     inkscape:pageopacity="0"
     inkscape:pageshadow="2"
     inkscape:window-width="2400"
     inkscape:window-height="1321"
     id="namedview6"
     showgrid="false"
     inkscape:zoom="4.8613591"
     inkscape:cx="57.249361"
     inkscape:cy="105.14651"
     inkscape:window-x="-9"
     inkscape:window-y="-9"
     inkscape:window-maximized="1"
     inkscape:current-layer="svg4"
     inkscape:document-rotation="0" />
  <path
     d="M 118.76925,24 H 9.23075 C 4.140875,24 0,28.14087 0,33.23075 v 61.5385 C 0,99.85937 4.140875,104 9.23075,104 h 109.5385 C 123.85938,104 128,99.85937 128,94.76925 V 33.23075 C 128,28.14087 123.85938,24 118.76925,24 Z M 72,87.98437 56,88 V 64 L 44,79.38462 32,64 V 88 H 16 V 40 H 32 L 44,56 56,40 72,39.9844 Z m 23.886375,4 L 76,64 H 88 V 40 h 16 v 24 h 12 z"
     id="path2"
     style="stroke-width:0.125;fill:#e6e6e6;fill-opacity:1" />
</svg>
